<svg width="8" height="12" viewBox="0 0 8 12" fill="none" xmlns="http://www.w3.org/2000/svg">
<path d="M0.62094 5.72339L6.22426 0.120322C6.30445 0.0402196 6.39672 0 6.50087 0C6.60506 0 6.69729 0.0402196 6.77744 0.120322L7.37854 0.721551C7.45881 0.801696 7.49878 0.893759 7.49878 0.998119C7.49878 1.10248 7.45881 1.19454 7.37854 1.27469L2.6531 6.00013L7.37854 10.7257C7.45881 10.8058 7.49878 10.898 7.49878 11.0021C7.49878 11.1064 7.45881 11.1986 7.37854 11.2788L6.7774 11.8798C6.69725 11.96 6.60502 12 6.50083 12C6.39668 12 6.30445 11.9599 6.22426 11.8798L0.621235 6.27669C0.541133 6.19659 0.50104 6.10432 0.50104 6.00013C0.50104 5.89593 0.540837 5.8037 0.62094 5.72339Z" fill="url(#paint0_linear)"/>
<defs>
<linearGradient id="paint0_linear" x1="6.25724" y1="1.09677" x2="-0.941407" y2="6.7448" gradientUnits="userSpaceOnUse">
<stop stop-color="#D01B52"/>
<stop offset="1" stop-color="#D01B52"/>
</linearGradient>
</defs>
</svg>
