<svg width="8" height="12" viewBox="0 0 8 12" fill="none" xmlns="http://www.w3.org/2000/svg">
<path d="M7.37894 5.72339L1.77562 0.120322C1.69543 0.0402196 1.60316 0 1.49901 0C1.39482 0 1.30258 0.0402196 1.22244 0.120322L0.621336 0.721551C0.541065 0.801696 0.501099 0.893759 0.501099 0.998119C0.501099 1.10248 0.541065 1.19454 0.621336 1.27469L5.34678 6.00013L0.621336 10.7257C0.541065 10.8058 0.501099 10.898 0.501099 11.0021C0.501099 11.1064 0.541065 11.1986 0.621336 11.2788L1.22248 11.8798C1.30263 11.96 1.39486 12 1.49905 12C1.6032 12 1.69543 11.9599 1.77562 11.8798L7.37864 6.27669C7.45875 6.19659 7.49884 6.10432 7.49884 6.00013C7.49884 5.89593 7.45904 5.8037 7.37894 5.72339Z" fill="url(#paint0_linear)"/>
<defs>
<linearGradient id="paint0_linear" x1="1.74263" y1="1.09677" x2="8.94129" y2="6.7448" gradientUnits="userSpaceOnUse">
<stop stop-color="#D01B52"/>
<stop offset="1" stop-color="#D01B52"/>
</linearGradient>
</defs>
</svg>
