<svg width="8" height="12" viewBox="0 0 8 12" fill="none" xmlns="http://www.w3.org/2000/svg">
<path d="M0.621062 5.72339L6.22438 0.120322C6.30457 0.0402196 6.39684 0 6.50099 0C6.60518 0 6.69742 0.0402196 6.77756 0.120322L7.37866 0.721551C7.45893 0.801696 7.4989 0.893759 7.4989 0.998119C7.4989 1.10248 7.45893 1.19454 7.37866 1.27469L2.65322 6.00013L7.37866 10.7257C7.45893 10.8058 7.4989 10.898 7.4989 11.0021C7.4989 11.1064 7.45893 11.1986 7.37866 11.2788L6.77752 11.8798C6.69737 11.96 6.60514 12 6.50095 12C6.3968 12 6.30457 11.9599 6.22438 11.8798L0.621357 6.27669C0.541255 6.19659 0.501162 6.10432 0.501162 6.00013C0.501162 5.89593 0.540959 5.8037 0.621062 5.72339Z" fill="#005BEA"/>
</svg>
