<svg width="40" height="40" viewBox="0 0 40 40" fill="none" xmlns="http://www.w3.org/2000/svg">
<path d="M34.512 0H5.37488C2.40648 0 0 2.40638 0 5.37488V34.5121C0 37.4807 2.40638 39.887 5.37488 39.887H19.7451L19.7696 25.6336H16.0666C15.5854 25.6336 15.1948 25.2444 15.1929 24.7632L15.1752 20.1687C15.1733 19.6848 15.5651 19.2916 16.0489 19.2916H19.7452V14.8522C19.7452 9.70026 22.8917 6.89499 27.4876 6.89499H31.2588C31.7413 6.89499 32.1326 7.28617 32.1326 7.76877V11.6429C32.1326 12.1253 31.7416 12.5164 31.2593 12.5166L28.9449 12.5177C26.4456 12.5177 25.9616 13.7054 25.9616 15.4484V19.2917H31.4536C31.9769 19.2917 32.3829 19.7487 32.3212 20.2683L31.7767 24.8628C31.7245 25.3025 31.3517 25.6338 30.909 25.6338H25.9861L25.9616 39.8872H34.5121C37.4806 39.8872 39.8869 37.4809 39.8869 34.5124V5.37488C39.8868 2.40638 37.4805 0 34.512 0Z" fill="#828282"/>
</svg>
