<svg width="66" height="84" viewBox="0 0 66 84" fill="none" xmlns="http://www.w3.org/2000/svg">
<path d="M17.6108 63.9803V67.2H14.8108C12.4913 67.2 10.6108 69.0806 10.6108 71.4C10.6108 73.7194 12.4913 75.6 14.8108 75.6H17.6108V79.8C17.6108 82.1194 19.4913 84 21.8108 84C24.1302 84 26.0108 82.1194 26.0108 79.8V75.6H28.8108C31.1302 75.6 33.0108 73.7194 33.0108 71.4C33.0108 69.0806 31.1302 67.2 28.8108 67.2H26.0108V63.9803C33.559 62.4217 39.6532 56.8661 41.9023 49.4942C48.2488 47.5706 53.3142 42.7629 55.5653 36.5244C57.8156 30.2866 56.9878 23.3522 53.332 17.8192L56.8108 14.3404V15.4C56.8108 17.7194 58.6913 19.6 61.0108 19.6C63.3302 19.6 65.2108 17.7194 65.2108 15.4V4.2C65.2108 1.88057 63.3302 0 61.0108 0H49.8108C47.4913 0 45.6108 1.88057 45.6108 4.2C45.6108 6.51943 47.4913 8.4 49.8108 8.4H50.8724L47.3902 11.8802C41.8558 8.22842 34.9221 7.40264 28.6843 9.65234C22.4465 11.9014 17.6361 16.962 15.7056 23.3058C6.50374 26.0962 0.372585 34.7799 0.823073 44.3844C1.27288 53.9895 8.1888 62.0621 17.6108 63.9803ZM28.8108 70C29.5839 70 30.2108 70.6269 30.2108 71.4C30.2108 72.1731 29.5839 72.8 28.8108 72.8H23.2108V79.8C23.2108 80.5731 22.5839 81.2 21.8108 81.2C21.0376 81.2 20.4108 80.5731 20.4108 79.8V72.8H14.8108C14.0376 72.8 13.4108 72.1731 13.4108 71.4C13.4108 70.6269 14.0376 70 14.8108 70H20.4108V64.4H23.2108V70H28.8108ZM25.1706 22.6803C27.9262 18.2957 33.0846 16.046 38.1719 17.0099C43.2592 17.9737 47.2377 21.955 48.1975 27.043C49.1579 32.131 46.9041 37.288 42.5182 40.0401C41.0491 31.1356 34.0738 24.1555 25.1706 22.6803ZM55.2412 7.98984C55.6418 7.58926 55.7614 6.98701 55.5447 6.46406C55.328 5.94111 54.8181 5.6 54.2514 5.6H49.8108C49.0376 5.6 48.4108 4.97314 48.4108 4.2C48.4108 3.42686 49.0376 2.8 49.8108 2.8H61.0108C61.7839 2.8 62.4108 3.42686 62.4108 4.2V15.4C62.4108 16.1731 61.7839 16.8 61.0108 16.8C60.2376 16.8 59.6108 16.1731 59.6108 15.4V10.9607C59.6108 10.3947 59.2696 9.88408 58.7467 9.66738C58.2238 9.45068 57.6215 9.57031 57.2209 9.9709L51.7207 15.4697L49.7397 13.4907L55.2412 7.98984ZM22.9421 16.53C28.1566 11.2827 36.0281 9.71387 42.8559 12.5604C49.6836 15.4075 54.1092 22.104 54.0511 29.5012C53.9937 36.8983 49.4642 43.5244 42.5927 46.2643C42.7308 45.3154 42.8032 44.3584 42.8108 43.4C42.8108 43.305 42.7985 43.2127 42.7971 43.1197C49.6276 39.6409 52.8596 31.6682 50.3795 24.4152C47.8994 17.1623 40.4633 12.8372 32.9328 14.268C25.4024 15.6994 20.0703 22.4506 20.4238 30.1082C20.7779 37.7651 26.7094 43.9961 34.3397 44.7275C34.2392 45.6593 34.0334 46.5767 33.7265 47.4626C26.7921 46.6669 20.9248 41.9727 18.6273 35.3814C16.3304 28.7902 18.0086 21.4662 22.9462 16.5327L22.9421 16.53ZM23.3092 30.8978C29.0726 31.5957 33.6151 36.1382 34.313 41.9022C28.549 41.2043 24.0065 36.6618 23.3092 30.8978ZM20.9624 44.2483C24.0776 47.3648 28.0937 49.4218 32.4427 50.1286C29.6762 54.4988 24.5185 56.7335 19.438 55.7628C14.3569 54.7914 10.3872 50.8122 9.42747 45.7297C8.4677 40.6465 10.714 35.4942 15.091 32.7373C15.7781 37.1 17.8343 41.1312 20.9624 44.2483ZM15.0309 26.5118C14.8921 27.4682 14.8183 28.4334 14.8108 29.4C14.8108 29.4937 14.8238 29.5859 14.8251 29.6803C7.99397 33.1577 4.76057 41.1298 7.23928 48.3834C9.71799 55.637 17.1534 59.9635 24.6846 58.5334C32.2151 57.1033 37.5478 50.3528 37.1957 42.6959C36.843 35.0383 30.9128 28.806 23.2825 28.0745C23.383 27.1428 23.5888 26.2254 23.8957 25.3401C32.9896 26.412 39.8624 34.0881 39.9267 43.2455C39.9909 52.4022 33.2275 60.1747 24.1487 61.3744C15.0705 62.5748 6.51946 56.8271 4.20208 47.9678C1.88538 39.1084 6.52766 29.91 15.0309 26.5118Z" fill="url(#paint0_linear)"/>
<defs>
<linearGradient id="paint0_linear" x1="1.51144" y1="35.4512" x2="40.7823" y2="57.5893" gradientUnits="userSpaceOnUse">
<stop stop-color="#005BEA"/>
<stop offset="1" stop-color="#00C6FB"/>
</linearGradient>
</defs>
</svg>
