<svg width="79" height="84" viewBox="0 0 79 84" fill="none" xmlns="http://www.w3.org/2000/svg">
<path d="M65.7938 5.60744C64.2278 5.60949 62.6762 5.90272 61.2175 6.47279C59.0036 2.36819 54.6604 -0.134205 49.9988 0.00865294C45.3371 0.151511 41.1553 2.91502 39.1963 7.14743C37.2387 2.91433 33.0575 0.14946 28.3958 0.00591882C23.7342 -0.138306 19.3904 2.36273 17.175 6.46732C13.2981 4.95193 8.92279 5.45091 5.48669 7.79951C2.04991 10.1488 -0.00341339 14.0442 4.25966e-06 18.2062V37.8044C4.25966e-06 38.2897 0.250859 38.7408 0.663711 38.9958C1.07656 39.2507 1.59194 39.2747 2.02598 39.0573L23.903 28.1174C26.6966 31.3587 29.8682 34.2548 33.3494 36.7435C31.5168 37.5276 30.4881 39.4927 30.8873 41.4455C31.2865 43.3984 33.0035 44.8017 34.9967 44.8037V82.6001C34.9967 83.3732 35.6235 84 36.3966 84H41.996C42.7691 84 43.3959 83.3732 43.3959 82.6001V78.4005H47.5955C48.3686 78.4005 48.9954 77.7737 48.9954 77.0007V72.8011H50.3952C51.1683 72.8011 51.7951 72.1743 51.7951 71.4012V65.8017C51.7951 65.0286 51.1683 64.4019 50.3952 64.4019H43.3959V44.8037C45.3904 44.803 47.1095 43.3997 47.5087 41.4455C47.9086 39.4906 46.8778 37.5255 45.0439 36.7422C48.5251 34.2541 51.696 31.3587 54.4903 28.1174L76.3673 39.0641C76.802 39.2822 77.3188 39.2576 77.7323 39.0012C78.1451 38.7442 78.3953 38.2911 78.3926 37.8044V18.2062C78.3851 11.2513 72.7487 5.61564 65.7938 5.60744ZM16.7984 28.5405V25.2056C16.7984 24.4325 16.1716 23.8057 15.3985 23.8057C14.6255 23.8057 13.9987 24.4325 13.9987 25.2056V29.9404L9.79908 32.0402V22.4058C9.79908 21.6328 9.17228 21.006 8.39921 21.006C7.62614 21.006 6.99934 21.6328 6.99934 22.4058V33.4401L2.79974 35.5399V18.2062C2.79427 14.9896 4.37117 11.9752 7.01643 10.1447C9.66169 8.3149 13.0383 7.90204 16.0465 9.04149C15.618 10.3805 15.3992 11.7777 15.3985 13.1837C15.3985 16.2637 18.229 21.1837 22.0452 25.9226L16.7984 28.5405ZM40.5962 81.2003H37.7964V44.8037H40.5962V81.2003ZM48.9954 67.2016V70.0013H47.5955C46.8224 70.0013 46.1956 70.6281 46.1956 71.4012V75.6008H43.3959V67.2016H48.9954ZM43.3959 42.004H34.9967C34.2236 42.004 33.5968 41.3772 33.5968 40.6041C33.5968 39.831 34.2236 39.2043 34.9967 39.2043H43.3959C44.169 39.2043 44.7958 39.831 44.7958 40.6041C44.7958 41.3772 44.169 42.004 43.3959 42.004ZM39.1963 36.4045C33.8976 36.4045 18.1983 19.0463 18.1983 13.1837C18.0506 7.61701 22.4314 2.97859 27.9974 2.8077C33.5633 2.97859 37.9441 7.61701 37.7964 13.1837V14.0237C37.7964 14.7968 38.4232 15.4236 39.1963 15.4236C39.9694 15.4236 40.5962 14.7968 40.5962 14.0237V13.1837C40.4485 7.61701 44.8293 2.97859 50.3952 2.8077C55.9612 2.97859 60.3419 7.61701 60.1943 13.1837C60.1943 19.0463 44.495 36.4045 39.1963 36.4045ZM75.5928 35.5399L71.3932 33.4401V22.4058C71.3932 21.6328 70.7664 21.006 69.9934 21.006C69.2203 21.006 68.5935 21.6328 68.5935 22.4058V32.0402L64.3939 29.9404V25.2056C64.3939 24.4325 63.7671 23.8057 62.994 23.8057C62.221 23.8057 61.5942 24.4325 61.5942 25.2056V28.5405L56.3474 25.9171C60.1635 21.1837 62.994 16.2691 62.994 13.1837C62.9934 11.7783 62.7753 10.3819 62.3474 9.04285C65.3556 7.90204 68.7323 8.31353 71.3782 10.144C74.0235 11.9745 75.5997 14.9896 75.5928 18.2062V35.5399Z" fill="url(#paint0_linear)"/>
<defs>
<linearGradient id="paint0_linear" x1="0.866112" y1="35.4512" x2="43.6913" y2="64.8334" gradientUnits="userSpaceOnUse">
<stop stop-color="#005BEA"/>
<stop offset="1" stop-color="#00C6FB"/>
</linearGradient>
</defs>
</svg>
