<svg width="12" height="12" viewBox="0 0 12 12" fill="none" xmlns="http://www.w3.org/2000/svg">
<path d="M6 0C2.69159 0 0 2.69127 0 5.99941C0 9.30814 2.69159 12 6 12C9.3084 12 12 9.30814 12 5.99941C12 2.69127 9.3084 0 6 0ZM6 10.7999C3.3534 10.7999 1.19998 8.64629 1.19998 5.99941C1.19998 3.35314 3.35338 1.20013 6 1.20013C8.64662 1.20013 10.8 3.35314 10.8 5.99941C10.8 8.64627 8.64662 10.7999 6 10.7999Z" fill="#D01B52"/>
<path d="M7.20001 2.9999C6.75901 2.9999 6.3294 3.19912 6 3.50755C5.6706 3.19912 5.24099 2.9999 4.79999 2.9999C3.36417 2.9999 2.39999 3.9642 2.39999 5.39895C2.39999 7.47874 5.35439 9.31195 5.69099 9.51357C5.78698 9.57058 5.89318 9.59939 6 9.59939C6.10682 9.59939 6.21299 9.57058 6.30901 9.51357C6.64561 9.31195 9.6 7.47877 9.6 5.39895C9.6 3.9642 8.63582 2.9999 7.20001 2.9999ZM6 8.28582C5.1468 7.70678 3.6 6.44184 3.6 5.39895C3.6 5.03832 3.717 4.20002 4.80001 4.20002C5.06942 4.20002 5.4 4.53067 5.4 4.79889C5.4 5.13013 5.66821 5.39895 6 5.39895C6.33179 5.39895 6.59999 5.13013 6.59999 4.79889C6.59999 4.53067 6.9306 4.20002 7.19998 4.20002C8.28299 4.20002 8.39999 5.03832 8.39999 5.39895C8.40002 6.44243 6.8532 7.70678 6 8.28582Z" fill="#D01B52"/>
</svg>
