<svg width="40" height="34" viewBox="0 0 40 34" fill="none" xmlns="http://www.w3.org/2000/svg">
<path d="M8.91445 0C11.5145 0 13.5811 0.933333 15.1145 2.8C16.7145 4.6 17.5145 7.03333 17.5145 10.1C17.5145 14.0333 16.3811 18.1667 14.1145 22.5C11.9145 26.7667 8.98112 30.3 5.31445 33.1L0.314453 27.4C1.91445 25.9333 3.38112 24.1333 4.71445 22C6.11445 19.8667 7.11445 17.6333 7.71445 15.3C7.44779 15.3667 7.08112 15.4 6.61445 15.4C4.88112 15.4 3.41445 14.7667 2.21445 13.5C1.01445 12.1667 0.414453 10.4333 0.414453 8.3C0.414453 5.83333 1.18112 3.83333 2.71445 2.3C4.31445 0.766666 6.38112 0 8.91445 0ZM31.3145 0C33.8478 0 35.8811 0.933333 37.4145 2.8C39.0145 4.6 39.8145 7.03333 39.8145 10.1C39.8145 14.0333 38.6811 18.1667 36.4145 22.5C34.2145 26.7667 31.2811 30.3 27.6145 33.1L22.6145 27.4C24.2145 26 25.6811 24.2333 27.0145 22.1C28.4145 19.9 29.4478 17.6333 30.1145 15.3C29.8478 15.3667 29.4478 15.4 28.9145 15.4C27.1811 15.4 25.7145 14.7333 24.5145 13.4C23.3145 12.0667 22.7145 10.3667 22.7145 8.3C22.7145 5.83333 23.5145 3.83333 25.1145 2.3C26.7145 0.766666 28.7811 0 31.3145 0Z" fill="url(#paint0_linear)"/>
<defs>
<linearGradient id="paint0_linear" x1="7.32252" y1="3.02527" x2="25.6704" y2="32.4847" gradientUnits="userSpaceOnUse">
<stop stop-color="#F25C92"/>
<stop offset="1" stop-color="#D01B52"/>
</linearGradient>
</defs>
</svg>
