<svg width="20" height="23" viewBox="0 0 20 23" fill="none" xmlns="http://www.w3.org/2000/svg">
<path opacity="0.8" d="M17.7 7.81313C17.4 7.61313 16.9 7.71313 16.7 8.01313C16.5 8.31313 16.6 8.81313 16.9 9.01313C17.7 9.51313 18.1 10.3131 18.1 11.2131C18.1 12.1131 17.6 12.9131 16.9 13.4131L5.4 20.6131C4.6 21.1131 3.6 21.1131 2.8 20.7131C2 20.2131 1.5 19.4131 1.5 18.4131V4.01313C1.5 3.01313 2 2.21313 2.8 1.71313C3.6 1.21313 4.6 1.31313 5.4 1.81313L12.1 6.01313C12.4 6.21313 12.9 6.11313 13.1 5.81313C13.3 5.51313 13.2 5.01313 12.9 4.81313L6.1 0.613126C4.9 -0.186875 3.4 -0.186875 2.1 0.513125C0.8 1.21313 0 2.51313 0 4.01313V18.4131C0 19.9131 0.8 21.2131 2.1 21.9131C2.7 22.2131 3.4 22.4131 4 22.4131C4.7 22.4131 5.5 22.2131 6.1 21.8131L17.6 14.6131C18.8 13.9131 19.5 12.6131 19.5 11.2131C19.5 9.81313 18.9 8.61313 17.7 7.81313Z" fill="white"/>
</svg>
