<svg width="11" height="11" viewBox="0 0 11 11" fill="none" xmlns="http://www.w3.org/2000/svg">
<path fill-rule="evenodd" clip-rule="evenodd" d="M10.3125 9.625C10.3125 10.0045 10.0045 10.3125 9.625 10.3125H7.8485L5.31575 7.74641L8.25 4.81216L10.3125 6.87466V9.625ZM1.375 10.3125C0.9955 10.3125 0.6875 10.0045 0.6875 9.625V9.30222L3.4186 6.85609L6.87535 10.3125H1.375ZM2.75 1.375C3.50934 1.375 4.125 1.99066 4.125 2.75C4.125 3.50934 3.50934 4.125 2.75 4.125C1.99066 4.125 1.375 3.50934 1.375 2.75C1.375 1.99066 1.99066 1.375 2.75 1.375ZM9.625 0H1.375C0.615656 0 0 0.615656 0 1.375V9.625C0 10.3843 0.615656 11 1.375 11H9.625C10.3843 11 11 10.3843 11 9.625V1.375C11 0.615656 10.3843 0 9.625 0ZM2.75 3.4375C3.1295 3.4375 3.4375 3.1295 3.4375 2.75C3.4375 2.3705 3.1295 2.0625 2.75 2.0625C2.3705 2.0625 2.0625 2.3705 2.0625 2.75C2.0625 3.1295 2.3705 3.4375 2.75 3.4375Z" fill="#D01B52"/>
</svg>
