<svg width="41" height="40" viewBox="0 0 41 40" fill="none" xmlns="http://www.w3.org/2000/svg">
<path fill-rule="evenodd" clip-rule="evenodd" d="M12.7628 0H28.8566C35.3972 0 40.7184 5.32119 40.7184 11.8618V27.9556C40.7184 34.4962 35.3972 39.8174 28.8566 39.8174H12.7628C6.22219 39.8174 0.901001 34.4962 0.901001 27.9556V11.8618C0.901001 5.32119 6.22219 0 12.7628 0ZM28.8566 35.812C33.1954 35.812 36.7128 32.2946 36.7128 27.9558V11.8621C36.7128 7.52316 33.1954 4.00586 28.8566 4.00586H12.7628C8.42399 4.00586 4.90662 7.52316 4.90662 11.8621V27.9558C4.90662 32.2946 8.42399 35.812 12.7628 35.812H28.8566Z" fill="#828282"/>
<path fill-rule="evenodd" clip-rule="evenodd" d="M10.5116 19.9085C10.5116 14.2301 15.1314 9.61035 20.8098 9.61035C26.4882 9.61035 31.108 14.23 31.108 19.9085C31.108 25.5869 26.4882 30.2067 20.8098 30.2067C15.1314 30.2067 10.5116 25.5868 10.5116 19.9085ZM14.5171 19.9088C14.5171 23.3841 17.3343 26.2014 20.8097 26.2014C24.2849 26.2014 27.1022 23.384 27.1022 19.9088C27.1022 16.4335 24.285 13.6162 20.8097 13.6162C17.3344 13.6162 14.5171 16.4335 14.5171 19.9088Z" fill="#828282"/>
<path d="M31.1279 12.1555C32.4907 12.1555 33.5956 11.0507 33.5956 9.68788C33.5956 8.32503 32.4907 7.22021 31.1279 7.22021C29.765 7.22021 28.6602 8.32503 28.6602 9.68788C28.6602 11.0507 29.765 12.1555 31.1279 12.1555Z" fill="#828282"/>
</svg>
