<svg width="82" height="84" viewBox="0 0 82 84" fill="none" xmlns="http://www.w3.org/2000/svg">
<path d="M0.538456 36.713C0.492895 36.7458 0.449404 36.7807 0.407294 36.8183C0.361732 36.8688 0.319622 36.9222 0.281654 36.9789C0.250589 37.0213 0.214692 37.0589 0.18846 37.104C0.152563 37.171 0.122879 37.2414 0.0994073 37.3139C0.0835299 37.3556 0.0607489 37.3932 0.0497037 37.4356C0.0165679 37.5538 0 37.6755 0 37.7979V82.5999C0 83.3731 0.633031 84 1.41379 84H74.931C75.7118 84 76.3448 83.3731 76.3448 82.5999V37.7979C76.3448 37.6755 76.3283 37.5538 76.2958 37.4356C76.2841 37.3932 76.2613 37.3556 76.2461 37.3139C76.222 37.2414 76.1923 37.171 76.1571 37.104C76.1301 37.0589 76.0949 37.0213 76.0639 36.9789C76.0259 36.9222 75.9838 36.8688 75.9375 36.8183C75.8961 36.7807 75.8519 36.7458 75.8064 36.713C75.7636 36.6747 75.7187 36.6391 75.6718 36.605L49.0403 20.3771C51.5227 17.769 53.7241 14.3427 53.7241 12.5967C53.7228 10.2683 52.2662 8.18394 50.0668 7.36153C47.8667 6.53913 45.3829 7.15029 43.8276 8.89696C42.2723 7.15029 39.7885 6.53913 37.5891 7.36153C35.389 8.18394 33.9331 10.2683 33.931 12.5967C34.0587 13.6892 34.4384 14.7378 35.0425 15.6601L26.3064 20.9807C25.188 20.0045 23.7225 19.5102 22.2348 19.6073C20.7464 19.7037 19.3596 20.3846 18.3793 21.4975C16.824 19.7509 14.3402 19.1397 12.1408 19.9621C9.94073 20.7845 8.48483 22.8689 8.48276 25.1973C8.84518 27.0944 9.69912 28.865 10.9597 30.3375L0.67307 36.605C0.626818 36.6391 0.581947 36.6747 0.538456 36.713ZM14.1379 22.3972C15.6995 22.3972 16.9655 23.651 16.9655 25.1973V25.5754C16.9655 26.3485 17.5985 26.9754 18.3793 26.9754C19.1601 26.9754 19.7931 26.3485 19.7931 25.5754V25.1973C19.7931 23.651 21.0592 22.3972 22.6207 22.3972C24.1822 22.3972 25.4483 23.651 25.4483 25.1973C25.4158 26.9522 19.9816 33.3919 18.4021 33.5977C16.7777 33.3919 11.3428 26.9522 11.3103 25.1973C11.3103 23.651 12.5764 22.3972 14.1379 22.3972ZM12.7538 32.5312C14.7033 34.6799 16.9034 36.3978 18.3793 36.3978C21.6004 36.3978 28.2759 28.2388 28.2759 25.1973C28.2703 24.5458 28.1482 23.9005 27.9155 23.2907L36.6033 17.9974C38.8282 20.9527 41.9264 23.7972 43.8276 23.7972C44.9722 23.6345 46.0387 23.13 46.8857 22.3514L72.2339 37.7979L38.1724 58.5555L31.4686 54.4701C33.1717 52.489 35.3448 49.4858 35.3448 47.5983C35.3434 45.2699 33.8869 43.1855 31.6875 42.3631C29.4874 41.5407 27.0036 42.1519 25.4483 43.8986C24.205 42.4944 22.3342 41.7998 20.4655 42.0487C18.5968 42.2975 16.9773 43.4563 16.153 45.1359L4.1116 37.7979L12.7538 32.5312ZM25.4483 49.3764C26.229 49.3764 26.8621 48.7496 26.8621 47.9764V47.5983C26.8621 46.052 28.1281 44.7982 29.6897 44.7982C31.2512 44.7982 32.5172 46.052 32.5172 47.5983C31.751 49.6171 30.5622 51.4519 29.0297 52.9832L18.5678 46.6098C19.0551 45.3533 20.3771 44.6177 21.715 44.8597C23.0528 45.1011 24.0269 46.2523 24.0345 47.5983V47.9764C24.0345 48.7496 24.6675 49.3764 25.4483 49.3764ZM2.82759 40.3041L37.4317 61.3918C37.8859 61.6687 38.4589 61.6687 38.9131 61.3918L73.5172 40.3041V81.1999H2.82759V40.3041ZM39.5862 9.79661C41.1477 9.79661 42.4138 11.0504 42.4138 12.5967V12.9748C42.4138 13.748 43.0468 14.3748 43.8276 14.3748C44.6083 14.3748 45.2414 13.748 45.2414 12.9748V12.5967C45.2414 11.0504 46.5074 9.79661 48.069 9.79661C49.6305 9.79661 50.8966 11.0504 50.8966 12.5967C50.8641 14.3516 45.4298 20.7913 43.8504 20.9971C42.226 20.7913 36.7911 14.3516 36.7586 12.5967C36.7586 11.0504 38.0247 9.79661 39.5862 9.79661Z" fill="url(#paint0_linear)"/>
<path d="M48.069 47.5983C51.29 47.5983 57.9655 39.4393 57.9655 36.3978C57.9641 34.0694 56.5075 31.985 54.3082 31.1626C52.1081 30.3402 49.6243 30.9514 48.069 32.698C46.5137 30.9514 44.0299 30.3402 41.8305 31.1626C39.6304 31.985 38.1745 34.0694 38.1724 36.3978C38.1724 39.4393 44.8486 47.5983 48.069 47.5983ZM43.8276 33.5977C45.3891 33.5977 46.6552 34.8515 46.6552 36.3978V36.7759C46.6552 37.549 47.2882 38.1759 48.069 38.1759C48.8497 38.1759 49.4828 37.549 49.4828 36.7759V36.3978C49.4828 34.8515 50.7488 33.5977 52.3103 33.5977C53.8719 33.5977 55.1379 34.8515 55.1379 36.3978C55.1055 38.1527 49.6712 44.5924 48.0918 44.7982C46.4674 44.5924 41.0324 38.1527 41 36.3978C41 34.8515 42.2661 33.5977 43.8276 33.5977Z" fill="url(#paint1_linear)"/>
<path d="M82 5.59641C81.9986 3.26799 80.542 1.18361 78.3426 0.361213C76.1426 -0.461188 73.6588 0.149973 72.1035 1.89664C70.5481 0.149973 68.0643 -0.461188 65.865 0.361213C63.6649 1.18361 62.209 3.26799 62.2069 5.59641C62.2069 8.63786 68.8831 16.7969 72.1035 16.7969C75.3245 16.7969 82 8.63786 82 5.59641ZM65.0345 5.59641C65.0345 4.05005 66.3006 2.79629 67.8621 2.79629C69.4236 2.79629 70.6897 4.05005 70.6897 5.59641V5.97446C70.6897 6.74764 71.3227 7.37452 72.1035 7.37452C72.8842 7.37452 73.5172 6.74764 73.5172 5.97446V5.59641C73.5172 4.05005 74.7833 2.79629 76.3448 2.79629C77.9064 2.79629 79.1724 4.05005 79.1724 5.59641C79.14 7.35128 73.7057 13.791 72.1262 13.9968C70.5019 13.791 65.0669 7.35128 65.0345 5.59641Z" fill="url(#paint2_linear)"/>
<defs>
<linearGradient id="paint0_linear" x1="0.905968" y1="35.4512" x2="44.3914" y2="66.6593" gradientUnits="userSpaceOnUse">
<stop stop-color="#005BEA"/>
<stop offset="1" stop-color="#00C6FB"/>
</linearGradient>
<linearGradient id="paint1_linear" x1="0.905968" y1="35.4512" x2="44.3914" y2="66.6593" gradientUnits="userSpaceOnUse">
<stop stop-color="#005BEA"/>
<stop offset="1" stop-color="#00C6FB"/>
</linearGradient>
<linearGradient id="paint2_linear" x1="0.905968" y1="35.4512" x2="44.3914" y2="66.6593" gradientUnits="userSpaceOnUse">
<stop stop-color="#005BEA"/>
<stop offset="1" stop-color="#00C6FB"/>
</linearGradient>
</defs>
</svg>
