<svg width="15" height="15" viewBox="0 0 15 15" fill="none" xmlns="http://www.w3.org/2000/svg">
<path fill-rule="evenodd" clip-rule="evenodd" d="M11.7188 8.4352C10.942 8.4352 10.3125 7.80544 10.3125 7.02845C10.3125 6.25146 10.942 5.62171 11.7188 5.62171C12.4955 5.62171 13.125 6.25146 13.125 7.02845C13.125 7.80544 12.4955 8.4352 11.7188 8.4352ZM12.6562 11.7176H10.7812C10.522 11.7176 10.3125 11.508 10.3125 11.2487C10.3125 10.9894 10.522 10.7798 10.7812 10.7798H12.6562C12.9155 10.7798 13.125 10.9894 13.125 11.2487C13.125 11.508 12.9155 11.7176 12.6562 11.7176ZM12.6562 13.1243H10.7812C10.522 13.1243 10.3125 12.9147 10.3125 12.6554C10.3125 12.3961 10.522 12.1865 10.7812 12.1865H12.6562C12.9155 12.1865 13.125 12.3961 13.125 12.6554C13.125 12.9147 12.9155 13.1243 12.6562 13.1243ZM9.375 12.1865C9.375 12.7042 8.955 13.1243 8.4375 13.1243H2.8125C2.295 13.1243 1.875 12.7042 1.875 12.1865V6.55954C1.875 6.04186 2.295 5.62171 2.8125 5.62171H8.4375C8.955 5.62171 9.375 6.04186 9.375 6.55954V12.1865ZM13.125 3.74605H8.78719L12.8991 0.916163C13.1161 0.766579 13.178 0.458007 13.0373 0.227301C12.8972 -0.00340457 12.607 -0.069505 12.3895 0.0800787C12.3895 0.0800787 7.88484 3.19133 7.50422 3.4211L2.61047 0.0800787C2.39344 -0.069505 2.10282 -0.00340457 1.96266 0.227301C1.82204 0.458007 1.8839 0.766579 2.10093 0.916163L6.21281 3.74605H1.875C0.839531 3.74605 0 4.58588 0 5.62171V13.1243C0 14.1602 0.839531 15 1.875 15H13.125C14.1605 15 15 14.1602 15 13.1243V5.62171C15 4.58588 14.1605 3.74605 13.125 3.74605ZM11.25 7.49737H12.1875V6.55954H11.25V7.49737ZM7.96875 6.55954H3.28125C3.02203 6.55954 2.8125 6.76961 2.8125 7.02845V11.7176C2.8125 11.9769 3.02203 12.1865 3.28125 12.1865H7.96875C8.22797 12.1865 8.4375 11.9769 8.4375 11.7176V7.02845C8.4375 6.76961 8.22797 6.55954 7.96875 6.55954Z" fill="#D01B52"/>
</svg>
