<svg width="49" height="40" viewBox="0 0 49 40" fill="none" xmlns="http://www.w3.org/2000/svg">
<path d="M47.3164 4.64012C46.251 5.11256 45.145 5.48528 44.0101 5.75511C45.2606 4.56682 46.2008 3.08051 46.7312 1.42153C46.8826 0.947923 46.3682 0.53838 45.9406 0.791962C44.3618 1.72843 42.6611 2.43095 40.8858 2.88024C40.7828 2.90632 40.6766 2.91953 40.5699 2.91953C40.2465 2.91953 39.9322 2.79946 39.6849 2.58153C37.796 0.916824 35.3667 0 32.8445 0C31.7532 0 30.6513 0.170107 29.5693 0.505645C26.2172 1.54534 23.6307 4.31043 22.8193 7.72192C22.5148 9.00152 22.4324 10.2823 22.5741 11.5286C22.5903 11.6718 22.5226 11.7718 22.4809 11.8186C22.4076 11.9008 22.3037 11.9479 22.1958 11.9479C22.1837 11.9479 22.1713 11.9474 22.159 11.9462C14.8213 11.2645 8.20454 7.7294 3.52743 1.9923C3.28893 1.69967 2.83156 1.73556 2.64146 2.06163C1.72557 3.63292 1.24155 5.4301 1.24155 7.25883C1.24155 10.0614 2.36754 12.7026 4.32337 14.628C3.50089 14.433 2.70483 14.1259 1.96535 13.7152C1.6076 13.5164 1.16742 13.7719 1.1624 14.1811C1.11119 18.3445 3.54882 22.0493 7.20049 23.7175C7.12695 23.7192 7.05341 23.72 6.97975 23.72C6.40092 23.72 5.81483 23.6642 5.23798 23.5539C4.8351 23.477 4.49664 23.8592 4.62174 24.2498C5.807 27.9502 8.99311 30.6777 12.8059 31.297C9.64151 33.4212 5.95653 34.5417 2.1212 34.5417L0.92553 34.541C0.557137 34.541 0.245563 34.7811 0.151682 35.1379C0.0592041 35.4893 0.229546 35.8601 0.543692 36.0428C4.8655 38.5579 9.79514 39.8872 14.8018 39.8872C19.1843 39.8872 23.2837 39.0175 26.9864 37.3024C30.3807 35.7301 33.3802 33.4824 35.9016 30.6219C38.2504 27.9573 40.0871 24.8812 41.3605 21.4793C42.5744 18.2365 43.216 14.7764 43.216 11.4729V11.3156C43.2159 10.7851 43.4558 10.286 43.8744 9.94629C45.4626 8.65675 46.8457 7.13876 47.985 5.43454C48.2858 4.98454 47.8114 4.42056 47.3164 4.64012Z" fill="#828282"/>
</svg>
